<svg xmlns="http://www.w3.org/2000/svg" viewBox="0 0 90.52 90.71"><defs><style>.cls-1{fill:#f2726e;}.cls-2{fill:#64cae5;}.cls-3{fill:#fff;}</style></defs><g id="Layer_2" data-name="Layer 2"><g id="Layer_1-2" data-name="Layer 1"><polygon class="cls-1" points="66.8 62.44 66.81 62.44 66.8 62.44 66.8 62.44"></polygon><path class="cls-2" d="M13.73,54.46a14.12,14.12,0,0,0,1.68.63,1.38,1.38,0,0,1,.68.37c.14.17.13.28,0,.43a2.37,2.37,0,0,1-.5.32,6,6,0,0,1-1.54.52.29.29,0,0,0-.21.13.93.93,0,0,0,.65.07,8.85,8.85,0,0,0,1.89-.53,1.35,1.35,0,0,1,.77-.06c.19,0,.37.11.56.15s.34.06.34.42c0,.06,0,.14.06.16s.11,0,.15-.09.12-.2.18-.3a.56.56,0,0,1,.54-.23c.2.06.23.22.25.39a5.57,5.57,0,0,1,0,1.08,5.1,5.1,0,0,0,0,.78s0,.11.06.12.08,0,.11-.07a1,1,0,0,0,.17-.4,9.31,9.31,0,0,0,.3-1.89,1.62,1.62,0,0,1,.08-.49c0-.1.09-.14.19-.07s.17,0,.18-.11c0-.3.07-.34.34-.26.06,0,.11,0,.16,0s0-.12,0-.17-.09-.18-.12-.26-.09-.21,0-.29.2,0,.28,0a3,3,0,0,1,.55.44c.28.27.55.55.82.82a1.24,1.24,0,0,0,.23.17.14.14,0,0,0,.16,0c.06,0,0-.1,0-.15a2.08,2.08,0,0,0-.25-.52,7.07,7.07,0,0,0-1.11-1.33c-.16-.16-.33-.32-.48-.49s-.2-.42.13-.56c.05,0,.1,0,.11-.1S21,53,21,53l-.35-.13c-.14,0-.26-.11-.28-.27s.11-.24.23-.31a2.36,2.36,0,0,1,.95-.26l1-.09c.06,0,.15,0,.16-.1s-.07-.11-.13-.14a1,1,0,0,0-.41-.13,5.92,5.92,0,0,0-2.37.22c-.12,0-.23.1-.36.06a.39.39,0,0,1,.09-.17c.05-.06.15-.13.09-.21s-.18,0-.26,0-.21.12-.34.19a.55.55,0,0,1,0-.12,2.93,2.93,0,0,1,.51-.65c.25-.24.51-.47.77-.69.07-.06.15-.14.09-.23s-.15,0-.21,0a6.29,6.29,0,0,0-2.08,1.64c0,.06-.07.14-.16.15a.29.29,0,0,1,0-.16c0-.08.09-.21,0-.24s-.16.09-.21.17a.88.88,0,0,1-.17.29,2.58,2.58,0,0,1,.25-1.27c.06-.16.13-.32.18-.48a.09.09,0,0,0,0-.13s-.08,0-.11,0a1.38,1.38,0,0,0-.42.53,4.16,4.16,0,0,0-.46,2.14v.15c-.23,0-.08.21-.12.32a2.45,2.45,0,0,1-.68-1,.33.33,0,0,0-.09.31,2.76,2.76,0,0,0,.67,1.33l.31.35h-.09c-.06,0-.13-.07-.16,0s0,.12.1.16l.34.17A1.51,1.51,0,0,1,16,54c-.05,0-.1-.11-.18-.08s-.06.13-.06.2,0,.16,0,.25c0,.34-.05.38-.39.34l-.26,0a8.93,8.93,0,0,1-1.43-.49.35.35,0,0,0-.3-.05A.65.65,0,0,0,13.73,54.46Zm4.57,1.38a1.56,1.56,0,0,1,0-.8A1.05,1.05,0,0,1,18.3,55.84ZM19,54.65a2.13,2.13,0,0,1,.54,1.66A5.48,5.48,0,0,0,19,54.65Zm.2-.53a.54.54,0,0,1,.55.33A1.79,1.79,0,0,1,19.17,54.12Zm2,.4a7.57,7.57,0,0,0-1.91-1A2.81,2.81,0,0,1,21.13,54.52Zm-1.94-1.4A1.06,1.06,0,0,1,20,53,2.19,2.19,0,0,1,19.19,53.12Zm-.34-.57A2.89,2.89,0,0,1,20.37,52c0,.05-.05.05-.09.06a5.78,5.78,0,0,0-1.48.66l-.07,0C18.72,52.63,18.79,52.59,18.85,52.55Zm-.5.26-.05,0a.93.93,0,0,1,.45-.61Zm.37-.08h0Zm0-1.35A8.23,8.23,0,0,0,18,52.7,1.81,1.81,0,0,1,18.67,51.38Zm-1.06,1a.58.58,0,0,1,0,.45A.69.69,0,0,1,17.61,52.36Zm.37,2a.68.68,0,0,0,.71-.24.55.55,0,0,0,.1-.6.46.46,0,0,0-.73-.2.32.32,0,0,0,0,.49.2.2,0,0,0,.26,0,.19.19,0,0,0,.1-.21c0-.11-.11-.15-.25-.11a.17.17,0,0,1,.25-.06.22.22,0,0,1,.12.24.33.33,0,0,1-.38.29.39.39,0,0,1-.33-.45.56.56,0,0,1,.53-.49.67.67,0,0,1,.62.57.79.79,0,0,1-.81.89,1,1,0,0,1-.89-.55A2.25,2.25,0,0,0,18,54.36ZM17.21,52a2.54,2.54,0,0,0,.31,1.27C17.22,53.19,17.05,52.48,17.21,52Zm.17,1.53c-.15,0-.2-.1-.23-.22A1.58,1.58,0,0,1,17.38,53.54Zm.24,1.11a2.13,2.13,0,0,1-1.4,1.49A4,4,0,0,0,17.62,54.65Z"></path><path class="cls-2" d="M67.12,83.38A2.27,2.27,0,0,0,64,81.92a2.36,2.36,0,0,0-1.52,3.33,2.25,2.25,0,0,0,3.05,1.43A2.53,2.53,0,0,0,67.12,83.38Z"></path><path class="cls-2" d="M56.89,84.87c-1.46.33-2.9.77-4.36,1a9.79,9.79,0,0,1-4.8-.08s0,0,0,0c-.13-.68-.06-1.34.59-1.63a.88.88,0,0,1,1.26.32,5.52,5.52,0,0,1,.26.55c0,.06,0,.17.16.14a.2.2,0,0,0,.17-.15,1.59,1.59,0,0,1,.07-.2c.09-.23.26-.31.44-.14s.52.37.74.6a.31.31,0,0,0,.43.07.74.74,0,0,1,.73-.12c.17,0,.26-.07.3-.22s-.07-.22-.2-.25-.25,0-.38-.06a.57.57,0,0,1-.48-.27,2.47,2.47,0,0,0-.74-.7.63.63,0,0,1-.25-.26c0-.14-.07-.28.11-.35a.88.88,0,0,1,.94.13,5.56,5.56,0,0,0,.54.42.29.29,0,0,0,.47-.22.4.4,0,0,0-.15-.37c-.23-.17-.11-.26.07-.32a1.57,1.57,0,0,1,.6-.09l1,.07c.18,0,.38.06.48-.15s-.09-.29-.21-.39-.14-.28.05-.38a2.14,2.14,0,0,0,.52-.32.3.3,0,0,0,.11-.35c0-.12-.2-.06-.3,0a2.92,2.92,0,0,0-.93.35c-.06,0-.15.14-.22,0s0-.17.1-.22a3.08,3.08,0,0,0,.74-.79c.22-.29.43-.59.66-.87a1.25,1.25,0,0,1,1.22-.49.48.48,0,0,0,.45-.11c.06-.06.16-.11.12-.22a.21.21,0,0,0-.23-.15c-.32,0-.32-.12-.2-.36a3,3,0,0,0,.21-.59c0-.19,0-.39-.21-.44s-.3.15-.34.33,0,.2,0,.3-.06.21-.16.24a1.46,1.46,0,0,0-.62.56c-.12.16-.25.18-.4,0-.28-.32-.5-.29-.71.1a3.55,3.55,0,0,0-.26.84,1.74,1.74,0,0,1-.24.58.27.27,0,0,1-.3.1.19.19,0,0,1-.11-.23,7.83,7.83,0,0,1,.34-1.43,7,7,0,0,0,.34-.74c0-.1.06-.23-.07-.29s-.22,0-.28.12a2.56,2.56,0,0,0-.22.4c-.1.19-.12.46-.45.42-.06,0-.15.13-.19.22a1.8,1.8,0,0,0-.25.68,7.37,7.37,0,0,0-.16,1.25.63.63,0,0,1-.2.46,3.22,3.22,0,0,0-.62.55.16.16,0,0,1-.22.06c-.08-.05,0-.14,0-.21a2,2,0,0,1,.24-.62,1.57,1.57,0,0,0,.22-.66,1,1,0,0,1,.29-.61,3.17,3.17,0,0,0,.29-.35.18.18,0,0,0,0-.28c-.19-.09-.17-.23-.11-.38a2.6,2.6,0,0,1,1-1.39,2.08,2.08,0,0,0,.65-.67c.08-.13.18-.28.06-.42s-.27,0-.4.06-.32.08-.35-.16a1.74,1.74,0,0,0-.11-.56c-.05-.12-.09-.27-.26-.26a.4.4,0,0,0-.37.26.54.54,0,0,0,.12.58.78.78,0,0,1,.14.82c0,.15-.13.28-.36.18s-.66,0-.73.44a.7.7,0,0,1-.16.44,1.27,1.27,0,0,0-.29,1,1.43,1.43,0,0,1,0,.36c0,.1,0,.23-.12.26s-.13-.1-.2-.15a1.39,1.39,0,0,1-.19-.15c-.13-.11-.29-.19-.44-.08a.46.46,0,0,0-.17.46,1.6,1.6,0,0,0,.19.47,3.2,3.2,0,0,1,.16.39.16.16,0,0,1-.07.23.6.6,0,0,0-.3.64,4.36,4.36,0,0,1,0,.51c0,.33-.16.54-.4.55s-.41-.16-.45-.5a2.57,2.57,0,0,1,0-.48,5.07,5.07,0,0,1,.09-.54.31.31,0,0,0-.17-.38c-.17-.09-.24.06-.31.16a2.07,2.07,0,0,0-.34.7l-.36,1.19c0,.09-.08.19-.21.17s-.17-.09-.19-.2a1.69,1.69,0,0,1,0-1c.05-.14.23-.34-.12-.38-.07,0,0-.1,0-.15a.92.92,0,0,1,.79-.81,2.64,2.64,0,0,1,.93,0c.2,0,.33,0,.4-.22s-.05-.31-.19-.39a2.27,2.27,0,0,0-.5-.23c-.16-.06-.19-.12-.08-.28a1.78,1.78,0,0,1,.83-.57,1.56,1.56,0,0,0,.77-.52.31.31,0,0,0,.07-.33c-.06-.14-.19-.13-.31-.12s-.23.06-.34,0c.15-.41.38-.72.86-.72a.29.29,0,0,0,.26-.19,1.31,1.31,0,0,1,.61-.6.74.74,0,0,0,.38-.59.28.28,0,0,0-.14-.3c-.13-.09-.21,0-.3.06a.93.93,0,0,0-.16.18,1.06,1.06,0,0,1-.87.51,1.38,1.38,0,0,0-.86.46c-.21.22-.37.48-.56.71s-.18.45-.38.43-.24-.31-.3-.5a.34.34,0,0,0-.4-.25c-.18,0-.23.17-.25.33a1.63,1.63,0,0,0,.06.54,6.91,6.91,0,0,1,.17.76.64.64,0,0,1-.36.68c-.26.13-.65-.08-.63-.34,0-.49.09-1,.16-1.47a1.24,1.24,0,0,1,1-1.11,1.51,1.51,0,0,0,.78-.46,1.1,1.1,0,0,1,1.09-.43.35.35,0,0,0,.25-.09,1.32,1.32,0,0,1,.43-.21c.34-.1.38-.25.16-.53,0,0-.07-.08-.07-.13,0-.22-.17-.24-.34-.24-.39,0-.45-.06-.3-.42s.24-.51.35-.77.11-.36-.11-.39-.34-.24-.35-.47a.82.82,0,0,0-.07-.3.29.29,0,0,0-.25-.22c-.14,0-.18.14-.21.25a1.63,1.63,0,0,0,0,.66.94.94,0,0,1-.2.8,1,1,0,0,0-.19.5,1,1,0,0,1-.47.7,1.05,1.05,0,0,0-.4.48c-.1.25-.34.31-.71.2-.2-.07-.14-.25-.14-.39a4.71,4.71,0,0,0,0-.75.35.35,0,0,0-.36-.34c-.21,0-.25.15-.29.32s0,.22-.13.27c-.36.14-.43.41-.16.7a.77.77,0,0,1,.18.8,1.51,1.51,0,0,1-.21.5,1.58,1.58,0,0,0-.36,1.23c0,.17-.07.26-.24.28s-.47-.26-.47-.56a1.37,1.37,0,0,0-.1-.57,2.33,2.33,0,0,1-.17-2c.06-.13.07-.39-.09-.42s-.17.21-.2.36a.29.29,0,0,0,0,.09c-.07.19-.08.43-.4.38-.09,0-.13.09-.14.17A4,4,0,0,0,45,77.26c0,.09.13.15.21.21a.66.66,0,0,1,.29.54.94.94,0,0,0,.18.56c.16.25.27.51.42.76a3.22,3.22,0,0,1,.32,1,.18.18,0,0,1,0,.2c-.08.06-.13,0-.19-.06a3.11,3.11,0,0,1-1-1.14.31.31,0,0,1-.06-.2c.08-.73-.42-1.32-.51-2a.3.3,0,0,0-.25-.27c-.16,0-.26.1-.33.22a1,1,0,0,0,0,1.17,1.68,1.68,0,0,1,.27,1.2,2.24,2.24,0,0,0-.91-.51c-.15,0-.35-.09-.43.09s-.11.44.08.56.34.37.51.54a1.86,1.86,0,0,0,1,.59,4.75,4.75,0,0,1,1.39.64.55.55,0,0,1,.19.18c.16.24.09.38-.19.39a.35.35,0,0,0-.33.18c-.06.1,0,.15.09.22a1.35,1.35,0,0,1,.12,1.93.66.66,0,0,0-.18.34s0,.05,0,.07a11,11,0,0,1-2.34-2.91,8.76,8.76,0,0,1-.43-8,31,31,0,0,1,3.28-5.66c.74-1.15,1.12-2.42-.27-3.33s-2.39-.06-3.16,1.07-1.6,2.52-2.41,3.77c-.43.67-.75,1.61-1.66,1.59-1.18,0-1.23-1.21-1.52-2a15.33,15.33,0,0,1-.5-2.35c-1.29-7-.09-14,.95-20.91A24.7,24.7,0,0,0,38,43c.39-.23.08-.93-.09-1.4s-.41-1-.74-1.1c0-.21,0-.48.3-.53,0-.29-.28-.22-.34-.48a3,3,0,0,0,1.94-1c-.35-.31-1.15.52-1.72.38a4.17,4.17,0,0,0,.93-1.55c-.38-.1-.45.34-.62.55a2.23,2.23,0,0,1-.8.68c-.38-.29-.41-1.18-.64-1.64-.1-.06-.09,0-.21.07a3.66,3.66,0,0,0,.25,1.8c-.61,0-.75-1-1.21-1.35-.37.49.32,1.45.72,1.54.09.16.35.36.17.54a.25.25,0,0,0-.32.22,1.1,1.1,0,0,1,.41.57,2.37,2.37,0,0,0-.89.5,2.11,2.11,0,0,0-1,1.57c-.42,2.38-.71,4.78-1.09,7.16-.28,1.73.07,3.64-1.16,5.28-1.93-1.09-2.25-3.1-3.43-4.46s-2.18-2.4-3.73-1.19-.47,2.47.42,3.57a37.54,37.54,0,0,1,6.3,11.43c2,5.87,3.82,11.81,7.13,17.15.77,1.24,1.57,3,.09,4.08-1.69,1.3-3-.31-4.14-1.35-2.6-2.38-4.13-5.48-5.51-8.66a36,36,0,0,1-2.94-13.4c0-1.47-.65-2.92-2.41-2.72-1.58.18-1.69,1.71-1.7,3s.13,2.75.19,4.13a1.05,1.05,0,0,1-.56,1.15c-.65.28-1.09-.06-1.41-.58-.78-1.28-1.43-2.64-2.32-3.83s-1.77-2.51-3.36-1.56-.71,2.49-.11,3.66a25.08,25.08,0,0,0,5.07,6.49c2,1.92,4,3.85,5.75,5.94.82,1,2.38,2.3,1.21,3.56s-2.52-.29-3.49-1.07c-2.32-1.88-4.49-3.94-6.71-5.93-4.95-4.44-6.6-10.05-5.83-16.51a50.39,50.39,0,0,1,2.31-9.72c.46-1.41.86-2.85-.91-3.49-2-.73-2.58.88-3,2.38-.59,2.1-1.1,4.22-1.67,6.33C6.91,54,7.07,55,5.92,55.56c-1.31-1.91-1-4.16-1.3-6.26a4,4,0,0,0-.81-2.09c.13-.23-.2-.54-.44-.62s-.29,0-.37-.07a6.08,6.08,0,0,1,1.25-.84c-.47-.31-1.07.42-1.51.52a3.26,3.26,0,0,1,.82-1.62c.11,0,.2-.11.17-.22-.18-.07-.36.12-.47.23a2.63,2.63,0,0,0-.53.78c-.11.27-.09.61-.32.79a12.06,12.06,0,0,0-.18-1.39c-.08-.27-.28-1-.52-.86A4.69,4.69,0,0,1,2,45.72c-.32-.19-.59-.52-1-.37.21.35.85.47.81,1l-.43.2c0,.1.1.13,0,.19a.77.77,0,0,0-.66.54,3.88,3.88,0,0,0-.24,2.44A45.14,45.14,0,0,0,4,63.71c5.54,12,14.87,20,27.05,24.69,8.81,3.37,17.85,2.63,26.84.46,1.39-.33,2.46-1,2-2.58S58.26,84.55,56.89,84.87Z"></path><path class="cls-1" d="M63.53,64.78h0Z"></path><path class="cls-1" d="M64.25,64.56l2.29-.77c0,.07-.07.09-.11.12l-1.77,1.21c-.06,0-.14.06-.16.16s.13,0,.19-.07l1.73-1c.06,0,.11-.09.19-.08l-.14.14c-.49.51-1,1-1.49,1.51h0a.78.78,0,0,0,.15-.1l1.37-1.19s.09-.12.17-.11l-1.36,2.24s-.09.1-.08.18l.08-.1,1.77-2.52s0-.13.13-.12l-1.8,3.42c.1,0,.11-.07.14-.13.47-.79.94-1.58,1.4-2.38l.4-.65a2.2,2.2,0,0,1-.25.8,8.24,8.24,0,0,0-.5.8c.18-.13.27-.34.43-.48,0,.32-.14.63-.18,1,.24-.52.23-1.15.73-1.58-.15.7-.3,1.36-.43,2-.09.45-.22.9-.27,1.36l0,0c.22-.76.43-1.51.64-2.27,0,0,0-.09.09-.1v2.43h0l.27-3.38h0c.21.63.41,1.25.61,1.88h0c-.13-.81-.25-1.61-.38-2.42h0L68.8,66a.07.07,0,0,0,0-.06,14.45,14.45,0,0,1-.32-1.72c.06,0,.06.08.08.12.16.41.3.83.47,1.24a12.5,12.5,0,0,0,.48,1.2,9.07,9.07,0,0,0-.26-.89c-.11-.4-.27-.77-.35-1.18.06,0,.06.08.08.13l.54,1.27c0,.06,0,.14.12.18-.14-.48-.28-.94-.42-1.4h0l.79.86c0-.08,0-.11-.09-.16-.23-.34-.46-.66-.7-1,0,0-.13-.09-.09-.19l.11.17c0,.05.11.1.16.16L71,66.41c0-.07,0-.11-.07-.15l-1.23-1.61s-.1-.08-.07-.15c.3.33.62.65.91,1,0-.08-.05-.12-.09-.18a7.4,7.4,0,0,1-.51-.7h0c.45.36.85.77,1.26,1.17,0-.09,0-.12-.09-.17-.46-.49-.92-1-1.37-1.48a.75.75,0,0,1-.21-.26c.07,0,.12,0,.18.07l1.77.92a.41.41,0,0,0,.19.08c0-.07-.09-.09-.14-.12l-1-.56-.66-.36a9.28,9.28,0,0,1,1.31.32h0c0-.1-.08-.09-.14-.11l-1-.43v0h2.71v0l-2.84-.31v0l2.8-.47v0l-2.92.11c.61-.12,1.22-.17,1.84-.24H70.25a.12.12,0,0,1,.11-.08l1.86-.62c.07,0,.15,0,.19-.1h0l-.08,0c-.69.18-1.38.32-2.06.55h0c0-.1.1-.09.15-.11.43-.14.86-.27,1.27-.45,0,0,.13,0,.14-.1l-2.5.64a2.19,2.19,0,0,1,.48-.25c.52-.24,1.06-.44,1.58-.7a.69.69,0,0,0-.32.08c-.56.17-1.13.31-1.67.52h0c0-.11.07-.1.12-.13l1.82-1s.14,0,.12-.13c-.58.28-1.16.56-1.71.87a.09.09,0,0,1-.1,0c.24-.18.49-.37.72-.56a2.8,2.8,0,0,0,.52-.45s-.09,0-.13.07l-1.31.9a3.62,3.62,0,0,0-.32.22c.37-.48.75-.92,1.14-1.37,0-.06.12-.1.13-.19s-.12.1-.17.15L68.8,61.77a.54.54,0,0,0,.15-.21c.13-.31.32-.59.42-.91l-.08,0a.28.28,0,0,1,.13-.2h0c0-.19.21-.33.24-.53-.06,0-.07.08-.1.13l-.71,1.14-.22.36,0,0c.12-.63.25-1.26.37-1.89-.08,0-.07.1-.09.15-.15.33-.29.66-.43,1h0l.19-1.62h0c-.17.81-.34,1.62-.52,2.43-.14-.89-.17-1.79-.39-2.66a20,20,0,0,1,0,2.45.38.38,0,0,1-.06-.13c-.23-.71-.48-1.42-.68-2.15a3.77,3.77,0,0,0-.23-.72.55.55,0,0,0,0,.18c.23,1,.51,2,.79,2.93a.44.44,0,0,1,0,.27L67,61.23a4.28,4.28,0,0,1-.74-1.09c-.13-.36-.31-.69-.47-1a2,2,0,0,0,.17.53c.09.27.19.53.3.81-.12,0-.14-.15-.26-.1a1.44,1.44,0,0,1,.37.45,1.34,1.34,0,0,1,.25.67,14.05,14.05,0,0,0-1-1.07l0,0,.94,1.22c-.08,0-.12,0-.17-.07l-1.5-1a.79.79,0,0,0-.3-.16h0c0,.18.16.27.28.36a14.1,14.1,0,0,1,1.42,1.25l.05,0h0s0,0,0,0c-.47-.19-.89-.46-1.34-.68,0,.12.07.13.13.17l1.35.79c.1.07.24.1.31.21s-.12,0-.17,0L65.28,62a.49.49,0,0,0-.2-.05,15.06,15.06,0,0,1,1.54.81l-2.29-.6v0l2.31.87v0l-2.8-.1v0l2.1.25v0l-1.55.09v0l1.82.08v0l-2.63,1.29A2.89,2.89,0,0,0,64.25,64.56Zm5.23-.13h0Zm0-.58v0h0Zm.17-2.18h0Zm-.53,2.69.07,0s0,0-.06,0Zm-.24.24a.16.16,0,0,1,0,.09S68.88,64.63,68.88,64.6Zm.4-3.9a.06.06,0,0,1,0,.07A0,0,0,0,1,69.28,60.7Zm0,.09c0,.06,0,.13-.13.16S69.17,60.82,69.25,60.79Zm-.14.19v.11A.11.11,0,0,1,69.11,61Zm0,.11s-.07.08-.13.06S69,61.06,69.11,61.09Zm-.16.18,0-.11h0s0,.08,0,.11Zm-.45,2.94,0,0S68.5,64.2,68.5,64.21Zm-.94.31h0Zm0-.2c.06.08,0,.14,0,.2S67.55,64.39,67.61,64.32Zm-1.08-2.45h0Zm-.14-.08Zm0,.05s0,0,0,0h0Zm.2,2.33h0Zm.62-.18a.08.08,0,0,1,0,.09A.27.27,0,0,1,67.23,64Zm0,0h0Zm.16-2a2.79,2.79,0,0,1-.4-.61A1.33,1.33,0,0,1,67.4,62Zm-.49-.76h0Zm0,1.32s-.06,0-.08,0A.11.11,0,0,1,66.89,62.58Zm-.2-1.13h0l0,0Zm.18,2a9.78,9.78,0,0,1-1.19.4C66.07,63.71,66.41,63.41,66.87,63.48Zm-1.19.4Z"></path><polygon class="cls-1" points="71.46 60.79 71.46 60.79 71.46 60.79 71.46 60.79"></polygon><polygon class="cls-1" points="70.51 65.51 70.51 65.5 70.51 65.51 70.51 65.51"></polygon><path class="cls-1" d="M71,66.41h0Z"></path><polygon class="cls-1" points="71.18 65.8 71.17 65.79 71.17 65.8 71.18 65.8"></polygon><path class="cls-1" d="M70.07,65.74h0s0,0,0,0Z"></path><path class="cls-1" d="M71.84,61.75h0Z"></path><polygon class="cls-1" points="71.65 64.95 71.64 64.95 71.65 64.96 71.65 64.95"></polygon><path class="cls-1" d="M66.89,68.26h0Z"></path><polygon class="cls-1" points="65.42 67.54 65.42 67.53 65.41 67.54 65.42 67.54"></polygon><path class="cls-1" d="M65.24,66.87v0h0Z"></path><path class="cls-1" d="M69.54,66.81s0,0,0,0,0,0,0,0Z"></path><path class="cls-1" d="M71.4,61.44h0Z"></path><path class="cls-1" d="M66.6,66v0Z"></path><path class="cls-1" d="M69,59.66h0a0,0,0,0,0,0,0Z"></path><polygon class="cls-1" points="66.04 60.34 66.04 60.34 66.04 60.34 66.04 60.34"></polygon><path class="cls-1" d="M65.81,59.07l0,0v0Z"></path><polygon class="cls-1" points="65 61.38 65.01 61.38 65.01 61.38 65 61.38"></polygon><path class="cls-1" d="M70.9,60.64h0Z"></path><path class="cls-1" d="M65.06,61.9h0Z"></path><path class="cls-1" d="M66.64,58.37v0Z"></path><polygon class="cls-1" points="70.4 60.27 70.4 60.28 70.41 60.28 70.4 60.27"></polygon><polygon class="cls-1" points="69.37 60.65 69.37 60.65 69.37 60.65 69.37 60.65"></polygon><path class="cls-1" d="M69.66,59.94h0Z"></path><path class="cls-1" d="M47,47.88c.53.4,1,.84,1.58,1.2.14.09.3.2.46.08s.09-.29,0-.45a5.75,5.75,0,0,0-.33-.87c-.18-.43-.43-.83-.58-1.28a.94.94,0,0,1,.29-1.12c.46-.4,1-.74,1.4-1.17a7.57,7.57,0,0,0,.66-.61c.08-.09.15-.19.09-.31a.3.3,0,0,0-.29-.16h-.31a17.92,17.92,0,0,0-2.19.26.93.93,0,0,1-.29,0,.74.74,0,0,1-.77-.58,2.86,2.86,0,0,1-.07-.28c-.11-.47-.18-1-.27-1.43a3.58,3.58,0,0,0-.19-.7c-.11-.2-.21-.23-.39-.13a.92.92,0,0,0-.42.43,2.8,2.8,0,0,0-.2.62,8.27,8.27,0,0,1-.54,1.54.85.85,0,0,1-.73.53,1.23,1.23,0,0,1-.47,0,8.26,8.26,0,0,0-2.16-.12c-.2,0-.42,0-.48.25s.13.33.28.43c.31.21.62.41.94.6l1.06.58a.76.76,0,0,1,.44,1,.49.49,0,0,0,0,.11c-.2.6-.41,1.2-.64,1.79a2.19,2.19,0,0,0-.2.66c0,.3.12.4.39.27a4.27,4.27,0,0,0,.66-.45,18.64,18.64,0,0,1,1.75-1.32.57.57,0,0,1,.74,0Zm1.23.12a.1.1,0,0,1,.15,0c0,.06,0,.1,0,.14s-.09,0-.13,0A.12.12,0,0,1,48.26,48Zm.89-4.22a.12.12,0,0,1,.18,0,.08.08,0,0,1,0,.11c-.07,0-.14,0-.19,0S49.1,43.8,49.15,43.78Zm-.62.19a.19.19,0,0,1,.24.05.11.11,0,0,1-.05.17c-.09,0-.2.06-.26,0S48.47,44,48.53,44ZM48,47.63a.1.1,0,0,1-.15,0,.12.12,0,0,1,0-.18c.06,0,.13,0,.16,0S48,47.58,48,47.63Zm-.25-3.48a.22.22,0,0,1,.3.09.17.17,0,0,1-.05.25c-.12.08-.21,0-.27-.08S47.63,44.2,47.73,44.15Zm-5.35,0c-.05,0-.1,0-.14,0a.15.15,0,0,1,.07-.19.07.07,0,0,1,.12,0A.14.14,0,0,1,42.38,44.19Zm.63.23c-.06,0-.11,0-.15-.07a.15.15,0,0,1,.08-.19.09.09,0,0,1,.14,0A.17.17,0,0,1,43,44.42Zm.35,4.15a.11.11,0,0,1-.15,0s0-.1,0-.14a.12.12,0,0,1,.17,0C43.44,48.5,43.41,48.54,43.36,48.57Zm4.21-1.71a.16.16,0,0,1-.09.22.12.12,0,0,1-.18,0,.19.19,0,0,1,.08-.25A.12.12,0,0,1,47.57,46.86Zm-.72-2.48a.36.36,0,0,1,.49.17.37.37,0,0,1-.14.51.31.31,0,0,1-.45-.14A.39.39,0,0,1,46.85,44.38Zm-.14,1.56A.22.22,0,0,1,47,46a.34.34,0,0,1-.06.45.3.3,0,0,1-.38-.1A.34.34,0,0,1,46.71,45.94ZM45.9,41C46,41,46,41,46,41a.09.09,0,0,1,0,.14s-.09,0-.12,0A.11.11,0,0,1,45.9,41Zm0,.67c.06,0,.12,0,.15,0s0,.12-.09.15-.1,0-.13,0S45.81,41.71,45.86,41.68Zm-.08.65c.06,0,.13,0,.17,0s0,.14-.07.18-.13.05-.17,0S45.71,42.37,45.78,42.33Zm0,.73c.08,0,.17-.05.21,0a.17.17,0,0,1-.08.21.13.13,0,0,1-.2-.05A.14.14,0,0,1,45.74,43.06Zm0,.78a.29.29,0,0,1,.39.1.25.25,0,0,1-.12.33.25.25,0,0,1-.35-.12A.22.22,0,0,1,45.71,43.84Zm-1.16.84a.29.29,0,0,1,.36.07.3.3,0,0,1-.12.38.2.2,0,0,1-.3-.09A.26.26,0,0,1,44.55,44.68Zm-.78,3.39a.12.12,0,0,1-.17,0c0-.05,0-.09,0-.13a.13.13,0,0,1,.16,0A.09.09,0,0,1,43.77,48.07Zm-.13-3.4c-.06-.1,0-.17.09-.22s.17-.05.22,0a.2.2,0,0,1-.09.25A.16.16,0,0,1,43.64,44.67Zm.54,2.95c-.07,0-.16.06-.22,0a.14.14,0,0,1,0-.2.16.16,0,0,1,.23,0C44.29,47.51,44.24,47.57,44.18,47.62Zm.4-.51c-.18.09-.31.07-.38-.07a.2.2,0,0,1,.1-.29.36.36,0,0,1,.41.1C44.78,47,44.66,47.05,44.58,47.11Zm.59-.58a.29.29,0,0,1-.37-.08.29.29,0,0,1,.11-.37.32.32,0,0,1,.39.09A.28.28,0,0,1,45.17,46.53Zm.3-1a.52.52,0,0,1,.24-.69.49.49,0,0,1,.7.18.51.51,0,0,1-.18.73A.56.56,0,0,1,45.47,45.51Z"></path><path class="cls-1" d="M70.41,11.23a2.34,2.34,0,0,0,1.45-3.06A2.11,2.11,0,0,0,69,6.81,2.19,2.19,0,0,0,67.58,9.9,2.09,2.09,0,0,0,70.41,11.23Z"></path><path class="cls-1" d="M57.61,68c-.46-.62-.25-1.72-.41-2.54a2.72,2.72,0,0,0-1-1.67,4.84,4.84,0,0,0-1.07-.31c-.93-.32-1.67-.68-2.59-1.06-.22.12-.25.13-.24.34a10.81,10.81,0,0,1-.17,2,3.53,3.53,0,0,0,0,1.08c.26,1.22,1.74,1.72,2.67,2a9.21,9.21,0,0,1,1.81.79,6.58,6.58,0,0,0,1,.7A1.39,1.39,0,0,0,58.93,69C58.87,68.34,58,68.51,57.61,68Z"></path><path class="cls-1" d="M75.84,12c-.92-.91-2-2-3.25-.8s-.56,2.5.49,3.56c.8.83,1.58,1.68,2.43,2.45a8.5,8.5,0,0,1,3,5.36c-.2.14-.23.12-.25-.13s0-.29,0-.43-.07-.31-.28-.28-.12-.08-.13-.15,0-.3,0-.45-.1-.38-.33-.41-.12-.08-.16-.15l-.14-.27c-.2-.3-.29-.3-.48,0a5,5,0,0,0-.29-.5.79.79,0,0,0-.45-.39c-.13,0-.26-.06-.35.1s-.15.09-.24,0a3.7,3.7,0,0,0-.42-.37c-.16-.11-.34-.21-.52,0s-.14,0-.21,0L73.63,19a.7.7,0,0,0-.38,0,.25.25,0,0,0-.22.17c0,.13,0,.21.15.28a1,1,0,0,0,.48.12c.12,0,.27,0,.25.21s.15.17.27.19.22,0,.33,0,.21,0,.22.19.15.22.27.27.33.14.49.21.22.08.15.26.07.19.17.25l.64.35c.1.06.18.11.09.25a.26.26,0,0,0,.09.36,2.43,2.43,0,0,0,.32.24c.16.1.29.18.16.41s0,.31.13.43l.46.43c.06.06.15.13,0,.18s-.16.24-.07.36.24.26.36.4.13.12.05.22-.1.36-.05.55a1.17,1.17,0,0,1-.07.8c-.06-.2.1-.44-.13-.57s-.14.06-.23.11c0-.14.06-.26.08-.39s0-.29-.28-.22c0-.15,0-.3,0-.44s0-.29-.21-.26-.06-.07-.06-.12a4.34,4.34,0,0,0,0-.51c0-.33-.14-.4-.48-.33,0-.22,0-.49-.23-.61s-.25.06-.35.19a4.77,4.77,0,0,0-.13-.8c-.14-.45-.25-.5-.63-.22a2.26,2.26,0,0,1-.08-.44,1.25,1.25,0,0,0-.15-.46c-.2-.34-.33-.37-.59-.09s-.17.06-.23,0a2,2,0,0,0-.47-.68c-.29-.23-.43-.2-.55.16,0,.12-.08.1-.16.06a1.22,1.22,0,0,1-.32-.32,1.73,1.73,0,0,0-.41-.4c-.15-.09-.3-.19-.43,0s-.16,0-.23,0a2.77,2.77,0,0,0-.72-.51c-.27-.11-.32-.1-.39.18s-.18.26-.37.16-.33-.2-.51-.29-.3-.18-.47-.07-.06.28,0,.43a1.08,1.08,0,0,1-.51-.14,3.41,3.41,0,0,0-.48-.22c-.27-.08-.44.05-.41.31s0,.16-.14.16A1.84,1.84,0,0,1,67,19.6a2.46,2.46,0,0,0-.59-.16c-.14,0-.33-.08-.39.11s.11.25.23.32a1.94,1.94,0,0,0,.81.27c-.08.33.06.47.39.36s.44-.18.66-.25.35-.12.43.14c0,.07.13.08.2.09a1.76,1.76,0,0,0,.65-.08,2.92,2.92,0,0,1,.49-.12c.18,0,.39-.08.31.26,0,.17.17.2.31.21a2.28,2.28,0,0,0,.52-.1c.29-.06.35,0,.37.26s.16.17.27.19a2.47,2.47,0,0,0,.54-.11c.11,0,.25-.1.24.15s.16.24.32.27a2.26,2.26,0,0,0,.45,0,1.05,1.05,0,0,1,.5,0c-.15.29-.11.38.22.48a2.91,2.91,0,0,1,.51.12c.1.05.17.09.09.21s0,.32.14.41a2.29,2.29,0,0,0,.27.14c.16.08.37.12.16.38s0,.27.17.34l.59.29c0,.11-.22,0-.19.16s.11.18.21.23.25.11.22.31.13.15.22.2.2.06.16.23.14.18.24.23.12.15.1.25-.11,0-.17,0a.1.1,0,0,0-.08,0c-.17.28-.21.06-.24-.06s-.15-.4-.22-.6c-.16-.37-.16-.38-.48-.15a1.71,1.71,0,0,1-.2-.69c-.09-.36-.14-.4-.49-.31-.1,0-.13,0-.15-.09s-.06-.21-.09-.31a1.76,1.76,0,0,0-.18-.5c-.13-.21-.27-.2-.41,0s-.09.22-.22.2-.15-.15-.18-.25a1.3,1.3,0,0,0-.61-.71c-.23-.13-.29-.09-.34.16,0,.09,0,.22-.09.25s-.17-.11-.22-.19-.23-.39-.37-.57c-.25-.35-.48-.33-.7,0-.06.11-.12.11-.21,0l-.42-.37c-.33-.27-.5-.23-.64.16,0,.12-.09.12-.16.05a3.33,3.33,0,0,1-.25-.28,1.75,1.75,0,0,0-.37-.35c-.22-.14-.34-.09-.43.15s-.13.29-.38.09a1.51,1.51,0,0,0-.39-.27c-.25-.11-.34-.05-.37.21,0,.1,0,.23-.09.27s-.17-.1-.24-.16-.31-.29-.47-.42-.35-.09-.39.16c0,.08,0,.16-.08.2s-.15-.06-.2-.12a6.11,6.11,0,0,0-.51-.63c-.25-.22-.32-.21-.51.06s-.2.19-.29,0-.12-.37-.2-.55-.33-.29-.54-.08-.24.24-.45-.05A1.87,1.87,0,0,0,63,19c-.09,0-.19-.13-.3,0a.4.4,0,0,0-.13.36,1,1,0,0,0,.31.52l.59.51c.07.06.14.1.06.22s-.09.34.15.42.48.12.71.17.23,0,.2.21.14.2.25.24a1.58,1.58,0,0,0,.75,0c.1,0,.23-.06.18.14s.06.13.13.15a.6.6,0,0,0,.42,0c.22-.07.44-.14.66-.19s.31.05.23.25,0,.26.19.3a2.55,2.55,0,0,0,.73,0c.19,0,.45-.12.39.27,0,.11.11.14.21.13a1.09,1.09,0,0,0,.38-.14,2.73,2.73,0,0,1,.57-.19c.11,0,.17,0,.16.12s.12.22.25.25a1.28,1.28,0,0,0,.55-.05l.4-.06c.06,0,.14,0,.12.08,0,.31.19.27.35.27s.32,0,.48-.05.21.06.12.21-.11.31.15.36.45.07.68.1c.06,0,.14,0,.17.09s0,.1-.09.14c-.22.13-.08.2,0,.27a2.32,2.32,0,0,0,.58.08c.14,0,.26.05.18.25s.09.19.19.21.4.07.6.11.2,0,.1.19.07.24.2.29.33.05.34.31.19.16.32.19.24.05.24.23.18.17.3.21.2,0,.2.16.13.12.22.15a1.18,1.18,0,0,1,.41.19.16.16,0,0,1,0,.21c-.07.1-.14,0-.2,0l-.32-.24c-.21-.17-.21-.17-.43,0a3.68,3.68,0,0,0-.16-.34c0-.06-.07-.16-.14-.12-.25.16-.25-.08-.32-.19s-.25-.42-.55-.31c-.1,0-.09-.05-.11-.09a.88.88,0,0,0-.24-.36c-.07-.06-.17-.14-.26,0s-.19.06-.26,0a3,3,0,0,0-.23-.27c-.13-.14-.27-.22-.41,0s-.11.08-.17,0a4,4,0,0,0-.24-.33c-.21-.24-.37-.24-.57,0l-.11.12a1.21,1.21,0,0,0-.29-.34.33.33,0,0,0-.52.07c-.07.1-.11.08-.2,0a1.63,1.63,0,0,0-.57-.25c-.27,0-.35,0-.37.26s-.08.12-.16.08L70,24.4a.34.34,0,0,0-.48.07c-.12.15-.2.11-.31,0L69,24.32c-.14-.14-.28-.19-.42,0s-.14.09-.22,0a1.45,1.45,0,0,0-.22-.21c-.1-.08-.21-.12-.31,0s-.15.08-.24,0-.28-.32-.53-.2c-.09,0-.11-.05-.14-.12a.7.7,0,0,0-.19-.29c-.1-.08-.22-.12-.3,0s-.15.08-.22,0-.24-.33-.38-.48-.25-.25-.41-.12-.09.32,0,.48a1.53,1.53,0,0,0,.35.32c.12.08.16.13,0,.23s-.16.2,0,.3a1.59,1.59,0,0,0,.57.1c-.05.26,0,.36.28.37a.87.87,0,0,0,.23,0c.14,0,.28-.06.27.18s.09.16.2.19a1,1,0,0,0,.45,0c.12,0,.24-.12.28.1s.14.12.23.1l.39-.1s.11-.08.15,0c.09.26.28.19.46.13l.34-.14c0,.3.21.28.41.2l.3-.14c.12-.06.22-.16.32.07s.27.07.41,0,.2-.1.25.09.21.19.35.16l.57-.14c.07.09-.06.23.06.29a.55.55,0,0,0,.4,0l.22-.06c.12,0,.17,0,.16.14,0,.4.07.47.47.38l.3-.07c-.08.26,0,.37.25.4a2.57,2.57,0,0,0,.48,0c.1,0,.17,0,.13.15s0,.17.14.2a2.82,2.82,0,0,0,.58,0c.16,0,.28,0,.2.25s0,.29.22.28a2.5,2.5,0,0,0,.54-.13.92.92,0,0,1,.46-.06l-.31.19c-.06,0-.12.09-.11.16s.11.06.17.07l.14.05a.6.6,0,0,1-.43,0h-.25a.2.2,0,0,0-.2.09c0,.09,0,.14.09.2s.12.08.13.19a1.29,1.29,0,0,1-.4-.16c-.12-.06-.23-.17-.37-.09s0,.23,0,.35-.22-.12-.33-.18-.32-.4-.61-.17c0,0-.08,0-.1-.08a1.39,1.39,0,0,0-.25-.38c-.13-.11-.25-.18-.36,0s-.23.15-.34,0a1.38,1.38,0,0,1-.17-.29c-.09-.19-.19-.34-.44-.19s-.19,0-.27-.09-.3-.32-.47-.46-.4-.16-.51.13c0,.14-.12.14-.2,0s-.15-.22-.23-.32-.25-.18-.36,0-.14.11-.21,0a1.11,1.11,0,0,1-.07-.16c0-.09-.09-.17-.19-.18s-.16.08-.19.17-.16.17-.28.07L69.42,26a.31.31,0,0,0-.35-.08c-.15.09-.06.23,0,.36a5.46,5.46,0,0,1-.57,0c-.1,0-.22,0-.25.13s.06.2.17.24l.36.1c.18,0,.4,0,.48.24,0,.1.19.07.3.06A.75.75,0,0,1,70,27c0,.09-.06.08-.1.11s-.09.06-.07.12a.15.15,0,0,0,.12.08,1.24,1.24,0,0,0,.43,0s.1,0,.14,0,0,.08,0,.12,0,.14.07.17a.7.7,0,0,0,.43,0,.82.82,0,0,1,.44-.06c-.07.25,0,.31.32.33.11,0,.3-.1.29.17,0,.06.12.1.2.12a1.19,1.19,0,0,0,.46,0c.05,0,.15,0,.16,0,.09.43.43.28.7.31l.12,0c.13,0,.27-.1.32.15s.24.19.41.2a1.17,1.17,0,0,0,.45-.06c.14-.05.27-.11.39,0s.21.06.31,0,.25-.18.38-.25.19-.25.3,0c0,.05.09,0,.14,0s.11-.07.14,0,0,.16-.07.19l-.31.1c-.11,0-.22,0-.22.19s-.1.08-.16.07l-.58-.17c-.16,0-.33-.07-.38.17s-.13.08-.21.06a3.21,3.21,0,0,1-.5-.31c-.16-.09-.31-.12-.3.18-.18-.13-.33-.25-.49-.35s-.36-.1-.37.22a2.92,2.92,0,0,0-.46-.18c-.11,0-.26-.11-.31,0s.11.16.2.21a1.89,1.89,0,0,0,.21.09c.11.06.27.09.11.26s0,.14.1.18.39.08.58.16c-.12.18-.08.27.14.3a1.51,1.51,0,0,0,.3,0c.08,0,.18-.09.16.1s.13.07.21.08a1.29,1.29,0,0,0,.44-.11c.09,0,.23-.22.28.05,0,.07.15,0,.24,0a2,2,0,0,0,.53-.22c.1,0,.2-.1.24.08s.06.11.1.11a6.53,6.53,0,0,1-2.67,1.8h0a9.55,9.55,0,0,1-3.64.82c-1.83.06-3.67.12-5.51.12-1.18,0-2.06.44-2.26,1.65-.26,1.51.86,2.08,2,2.31a17.67,17.67,0,0,0,3.42.15c1.22,0,2.82-.69,3.41.75.52,1.27-.7,2.3-1.61,3.19a39.85,39.85,0,0,1-11.41,7.62c-3.13,1.45-6.33,2.75-9.48,4.16-1.19.52-2.47,1.24-1.91,2.79.62,1.7,2.1,1.52,3.48,1,1.17-.48,2.27-1.13,3.45-1.57,2.17-.82,4.15-2.33,6.88-2.24a.23.23,0,0,1,.19.3c-.7,1.89-1.36,3.51-1.86,5.17-.39,1.34-.7,2.91,1.17,3.42,1.63.44,2.23-.89,2.61-2.13,3.44-11.1,13-18.31,18-28.43a2.18,2.18,0,0,1,2.63-1.18c1.41.42,1.4,1.65,1.32,2.84a15.53,15.53,0,0,1-2.37,7.14c-3,4.81-6.1,9.46-11,12.6-1.43.91-3.17,2.54-1.8,4.19s3.12.07,4.53-.92c1.13-.79,2-2,3.59-2.5a.23.23,0,0,1,.28.2c.1,2.75-1.93,4.53-2.6,6.78-.39,1.31-.43,2.63.94,3.31,1.22.62,1.93-.24,2.49-1.1A26.87,26.87,0,0,0,82,52.94c.55-2.71,1.12-5.42,1.83-8.09.32-1.24.34-3.32,2-3.08,1.29.19.78,2.14.75,3.33a59.55,59.55,0,0,1-1.09,9.59,18,18,0,0,1-9.57,13.16,40.31,40.31,0,0,1-9.34,3.49,13.68,13.68,0,0,0-2.62.79,2,2,0,0,0-1.23,2.55,1.91,1.91,0,0,0,2.55,1.14c1.89-.5,3.75-1.13,5.62-1.71,1.3-.4,2.56-1.07,4.14-.66a.22.22,0,0,1,.12.33c-1.36,2-3.38,3.23-5.09,4.74-.85.76-1.37,1.69-.63,2.71a2,2,0,0,0,3,.45c.55-.41,1.1-.83,1.63-1.27,11.2-9.27,16.38-21.34,16.43-35.73C90.57,31.58,85,21,75.84,12Z"></path><path class="cls-3" d="M63.14,3.79c-.2-.11-.41-.19-.62-.29-21.85-9.67-51.65,1-60,27.89-.34,1.1-.76,2.18-1,3.3s-.22,2.37,1.29,2.76A2,2,0,0,0,5.21,36a28.58,28.58,0,0,0,1.24-3.94c.86-3.75,3-6.17,6.92-6.68s7.24.72,9.28,4.44c.94,1.71,1.9,3.41,3,5.05.57.88,1.43,1.66,2.6,1a2.17,2.17,0,0,0,1-2.7,34.16,34.16,0,0,0-1.53-3.45c-.44-1-1.55-2.12-.69-3.14s2.39-.5,3.55-.05a36.61,36.61,0,0,1,9.13,4.82c3.6,2.68,7.12,5.45,10.7,8.14,1.12.84,2.41,1.78,3.65.36s.26-2.54-.9-3.48L48.79,33c-1.23-1-3.42-1.74-3.22-3.25.25-1.91,2.63-1.18,4.08-1.56s3.19-1,2.9-2.74-2.1-1.53-3.45-1.33a42,42,0,0,1-13.38-.52C29.38,22.47,23.1,21,16.59,21.26c-1.14,0-2.54,0-2.78-1.45s.9-2,1.92-2.59a13.88,13.88,0,0,1,7-1.4,38.39,38.39,0,0,1,17.93,4.33c1.21.66,2.76,1.14,3.61-.53s-.6-2.17-1.62-2.93c-1.49-1.09-4.64-1.31-4.13-3.31.38-1.49,3.47-.78,5.36-.91,1.51-.1,2.93-.38,2.94-2.14s-1.5-1.82-2.79-1.89a24.5,24.5,0,0,0-9.82,1.38,27.33,27.33,0,0,1-7.65,2c-.9,0-2.07.35-2.48-.61C23.55,9.89,25,9.53,25.74,9c2.1-1.5,4.63-2,7-2.88,8.9-3.27,16.47-1.16,22.81,5.75a23.8,23.8,0,0,0,4,3.78c1,.67,2.09,1.43,3.13.53,1.25-1.09.38-2.41-.34-3.39s-1.94-1.95-2.85-3S57,8.06,56.54,6a11.31,11.31,0,0,1,4.67,1.54c1.67.76,3.6,1.46,4.54-.51C66.78,4.87,64.47,4.53,63.14,3.79Z"></path><path class="cls-3" d="M1.63,38.94A2.19,2.19,0,0,0,.21,42a2.09,2.09,0,0,0,2.84,1.34A2.36,2.36,0,0,0,4.51,40.3,2.11,2.11,0,0,0,1.63,38.94Z"></path><path class="cls-3" d="M58.53,19.54a3.5,3.5,0,0,0-1.14-.76,2.75,2.75,0,0,1-.38-.2.31.31,0,0,1-.19-.24s0-.06-.08-.08l-.2-.11c-.32-.13-.65-.23-1-.34L55,17.6a.33.33,0,0,1,.1,0l1.14.32a.15.15,0,0,0,.13,0,.37.37,0,0,1,.29,0l.42,0a5.7,5.7,0,0,0,1,0,.73.73,0,0,0,.42-.18,3.27,3.27,0,0,0,.6-1,.27.27,0,0,0-.12.07l-.43.38a1.3,1.3,0,0,1-.52.27,4.85,4.85,0,0,1-1.14.11.89.89,0,0,1-.4-.07l-.67-.29c.51-.34.65-.58.57-.93a.65.65,0,0,0-.53-.53h0a.52.52,0,0,1,0,.68s0,.06-.09,0-.27-.39-.11-.64c0,0,0,0-.06,0a.46.46,0,0,0-.28.53,1.09,1.09,0,0,0,.18.43c.06.07,0,.11,0,.15a.43.43,0,0,1-.19,0,1.1,1.1,0,0,1-.4-.08.23.23,0,0,1-.16-.18,1.09,1.09,0,0,0-.07-.24,1.06,1.06,0,0,0-.7-.71,1.78,1.78,0,0,1-.63-.35,1,1,0,0,0-.77-.21,2.47,2.47,0,0,0-.47.11s0,0-.08,0a.86.86,0,0,1-.45-.47c0-.13,0-.17.13-.17a.9.9,0,0,0,.53-.14.41.41,0,0,0,.17-.51c-.16.2-.2.22-.37.24H51.8c-.09,0-.1,0-.07-.1a.56.56,0,0,1,.58-.34.66.66,0,0,0-.82-.12.79.79,0,0,0-.39.83s0,.08,0,.12l-.19-.13a1.91,1.91,0,0,1-.84-.8c-.07-.14-.14-.28-.22-.42a1.67,1.67,0,0,1-.17-1.24,1.55,1.55,0,0,0,0-.29.49.49,0,0,0,0-.12,2.94,2.94,0,0,0-.47.87.79.79,0,0,0,.07.67,2.9,2.9,0,0,0,.19.29l.65.82a.32.32,0,0,1,.1.22.19.19,0,0,0,.07.14l.42.36.53.48-.06,0L50.52,15a5.11,5.11,0,0,0-.71-.51c-.05,0-.1-.06-.15,0a.28.28,0,0,1-.2,0A1.69,1.69,0,0,1,49,14.2a5.36,5.36,0,0,0-.93-.46,7.32,7.32,0,0,1-.87-.28,1.65,1.65,0,0,0-.83-.13l.17.1a1.74,1.74,0,0,0,.78.3.43.43,0,0,1,.28.13,1.7,1.7,0,0,0,.66.42c.33.14.68.23,1,.35.09,0,.19.06.23.15a.63.63,0,0,0,.28.28c.23.15.48.3.71.46a2,2,0,0,1,.39.31,1.74,1.74,0,0,1-.33-.18c-.27-.17-.52-.37-.81-.53a1,1,0,0,0-.55-.17,2.27,2.27,0,0,1-.45,0l-.61-.11a2.38,2.38,0,0,0-.75-.06.48.48,0,0,0-.35.18.29.29,0,0,1-.23.13,1.29,1.29,0,0,0-.44.11,1.11,1.11,0,0,0-.66.44c.12-.08.23,0,.32,0a2.63,2.63,0,0,0,.72-.23.25.25,0,0,0,.1-.08.22.22,0,0,1,.3-.07.6.6,0,0,0,.35.08c.22,0,.43,0,.65-.07a3.07,3.07,0,0,1,.68,0,.36.36,0,0,1,.22.09,2.19,2.19,0,0,0,.5.36,8.84,8.84,0,0,0,.89.55c.06,0,0,.06,0,.07a.58.58,0,0,1-.21.07c-.05,0-.07-.07-.12-.1h0A1.86,1.86,0,0,0,49,15.66s-.08,0-.09,0-.1.07-.17.05a.76.76,0,0,0-.81.17,1.18,1.18,0,0,0-.26.43.33.33,0,0,0,0,.32.2.2,0,0,1,0,.13,1.93,1.93,0,0,1-.11.34,1.39,1.39,0,0,0-.2.77,3,3,0,0,0,1,2,1.67,1.67,0,0,0,1.24.46.83.83,0,0,0,.32-.08,1.21,1.21,0,0,1-.74-.47,1.56,1.56,0,0,1-.29-.82,1.49,1.49,0,0,0,.39.13.75.75,0,0,1,.46.32,3.38,3.38,0,0,1,.24.41A.7.7,0,0,0,50,20a.4.4,0,0,0,.07-.25A1.72,1.72,0,0,0,50,19.1a4.67,4.67,0,0,0-1.48-2.31c-.11-.09-.11-.12,0-.24l0-.06a.83.83,0,0,1,1-.08.72.72,0,0,1,.27.85.3.3,0,0,0,0,.28l.12.2a.33.33,0,0,1,.07.25c0,.06,0,.09.05.13a5.26,5.26,0,0,0,.63.62s.05.05,0,.1a.25.25,0,0,0,.1.29.26.26,0,0,0,.31,0s.07,0,.1,0a5.23,5.23,0,0,0,.91.47.08.08,0,0,1,0,.07c0,.16.05.24.18.28a.25.25,0,0,0,.31-.09.09.09,0,0,1,.11,0,5.32,5.32,0,0,0,.67.14s.07,0,.1,0a.52.52,0,0,1,.38-.1.52.52,0,0,0,.45-.17.7.7,0,0,1,.88-.16.88.88,0,0,1,.44.59.53.53,0,0,1,0,.39c-.06.11-.09.12-.21.09A4.78,4.78,0,0,0,53,20.52a2.36,2.36,0,0,0-.85.35.56.56,0,0,0-.21.22.67.67,0,0,0,.2,0,2.69,2.69,0,0,1,.49,0,.81.81,0,0,1,.43.16,2.92,2.92,0,0,0,.38.32,1.57,1.57,0,0,1-.73.2,1.25,1.25,0,0,1-.91-.37,1,1,0,0,0,.19.44,1.77,1.77,0,0,0,1.14.7A3.14,3.14,0,0,0,55,22.28a1.3,1.3,0,0,0,.61-.47c.07-.09.12-.18.18-.26s.16-.27.31-.3a.41.41,0,0,0,.26-.18,1.75,1.75,0,0,0,.16-.27.78.78,0,0,0-.24-1s-.12-.08,0-.16,0,0,0-.06l-.08-.1a1.88,1.88,0,0,0-1-.59s-.08,0-.09,0a1.42,1.42,0,0,1,0-.22c0-.05,0-.06.07,0a1.29,1.29,0,0,0,.33.17,8.34,8.34,0,0,1,1.06.47,1,1,0,0,1,.41.38c.06.1.11.2.16.3s.22.45.35.66a.62.62,0,0,0,.27.26.19.19,0,0,1,.12.23.73.73,0,0,0,0,.44,1.88,1.88,0,0,0,.3.71,1,1,0,0,0,0-.7c0-.1-.05-.19-.07-.29a.61.61,0,0,0-.05-.12.31.31,0,0,1,0-.33.5.5,0,0,0,0-.36,1.75,1.75,0,0,0-.18-.29,7.49,7.49,0,0,0-.59-.66,2,2,0,0,1-.35-.42.83.83,0,0,0-.33-.34,5.28,5.28,0,0,0-.83-.4,3,3,0,0,1-.54-.27l.11,0a7.41,7.41,0,0,1,1,.41,1,1,0,0,0,.48.16.39.39,0,0,1,.31.1l.63.51a2.29,2.29,0,0,0,1,.51.3.3,0,0,1,.2.13.73.73,0,0,0,.17.18,2.37,2.37,0,0,0,.7.42,2.93,2.93,0,0,0-.45-.54C58.93,19.82,58.7,19.72,58.53,19.54Zm-10.08-.1s0,.11,0,.16-.09,0-.16,0-.52-.51-.45-.76c0-.06,0-.13.07-.16s.12,0,.16.07A1.83,1.83,0,0,1,48.45,19.44Zm2.42-2.86a.05.05,0,0,1-.08,0,.08.08,0,0,1,0-.09.06.06,0,0,1,.09,0A.08.08,0,0,1,50.87,16.58Zm.2.07s0,0,0-.09.06,0,.09,0a.06.06,0,0,1,0,.09A.05.05,0,0,1,51.07,16.65Zm.63-1.09a.07.07,0,0,1,0,.1s0,.05-.08,0,0-.06,0-.1A.07.07,0,0,1,51.7,15.56Zm-.37.63s0-.05,0-.09.05-.05.08,0a.07.07,0,0,1,0,.1A.05.05,0,0,1,51.33,16.19Zm.16,0a.08.08,0,0,1,0-.1s.05,0,.09,0a.06.06,0,0,1,0,.09A.05.05,0,0,1,51.49,16.19Zm.06-.47a.06.06,0,0,1,.09,0,.07.07,0,0,1,0,.1s0,0-.07,0A.08.08,0,0,1,51.55,15.72Zm.31.41a.08.08,0,0,1,0-.09s.06,0,.09,0a.08.08,0,0,1,0,.1A.06.06,0,0,1,51.86,16.13Zm.06-.27c-.08,0-.12.1-.19.13a.06.06,0,0,1-.08,0,.06.06,0,0,1,0-.08c0-.05.07,0,.09-.05s.12,0,.14-.12,0,0,.07,0S52,15.85,51.92,15.86Zm.41-.27a.66.66,0,0,1,.76,0A2.44,2.44,0,0,1,52.33,15.59Zm2.12.92s0,0,0,0-.07.11-.15.08a.08.08,0,0,1,0-.09C54.33,16.46,54.39,16.53,54.45,16.51Zm-.15,1.15a.07.07,0,0,1,0,.1.06.06,0,0,1-.08,0,.08.08,0,0,1,0-.1S54.26,17.64,54.3,17.66Zm-.13-.9a0,0,0,0,1,0,0c0-.06,0-.1-.07-.05a0,0,0,0,1,0,0c0-.07.07-.09.1-.12s.08,0,.08.06a.11.11,0,0,0,0,.08.07.07,0,0,1,0,.09A.06.06,0,0,1,54.17,16.76Zm.13-.55a.05.05,0,0,1,0,.09s-.08.11-.15.08,0-.05,0-.1S54.22,16.18,54.3,16.21ZM54,16.09s.05.05,0,.08,0,0-.08,0a.06.06,0,0,1,0-.09A.05.05,0,0,1,54,16.09Zm-.08.16s0,0,.07,0,0,0,0,.08.1,0,.07.05-.09,0-.13,0S54,16.29,54,16.25Zm0,1a.06.06,0,0,1-.09,0,.06.06,0,0,1,0-.09.05.05,0,0,1,.08,0A.07.07,0,0,1,54,17.28Zm-.14-1.06s.06,0,.09,0,0,.06,0,.1,0,0-.07,0A.07.07,0,0,1,53.81,16.22ZM53.52,16s0-.05.06,0,0,.05,0,.08,0,0-.06,0S53.5,16,53.52,16Zm0,.18a.05.05,0,0,1,.09,0s.09,0,.06.09a.1.1,0,0,1-.13,0A.07.07,0,0,1,53.5,16.14Zm0,3.39a2.19,2.19,0,0,0,1-.69A.93.93,0,0,1,53.54,19.53Zm.91-2.48a.06.06,0,0,1,0-.09.07.07,0,0,1,.11.07S54.49,17.08,54.45,17.05Zm.16.73a.07.07,0,0,1,0-.1.05.05,0,0,1,.08,0,.07.07,0,0,1,0,.1A.05.05,0,0,1,54.61,17.78Zm-2,2.95a5.72,5.72,0,0,1,1.15-.23A2.81,2.81,0,0,1,52.65,20.73Zm.8,1.43h0a6.5,6.5,0,0,0,1.91-.54A2.09,2.09,0,0,1,53.45,22.16Zm3-1.62c0,.2-.1.32-.24.34a1.16,1.16,0,0,0,0-1A.61.61,0,0,1,56.44,20.54Zm1-.08a.05.05,0,0,1,.06,0,.75.75,0,0,0,.07.12,0,0,0,0,1,0,.07.06.06,0,0,1-.06,0,.27.27,0,0,1-.12-.23A.09.09,0,0,1,57.46,20.46ZM55.38,18.6h.07l.54.3s0,0-.06,0l-.57-.25s-.07,0-.06-.05S55.35,18.6,55.38,18.6Z"></path><path class="cls-3" d="M19.37,35.19a1.73,1.73,0,0,1-.11-.38,2.16,2.16,0,0,0-1-1c-.27-.14-.67-.18-.89-.42s-.15-.73-.38-1.06a16.88,16.88,0,0,0-2.94-.09c-.28.21-.25.58-.38.94-.91.59-2.16,1-2.29,2.34a5.52,5.52,0,0,0,0,.91,5.87,5.87,0,0,0,.7,1.66,7.43,7.43,0,0,0,1.32,1.08,3.76,3.76,0,0,0,2.31.62,4.31,4.31,0,0,0,2.78-1.36,3.53,3.53,0,0,0,.49-.76,5.54,5.54,0,0,0,.29-.52,3.74,3.74,0,0,0,.09-1.95C19.44,35.14,19.37,35.19,19.37,35.19Zm-1.24-.87a0,0,0,0,1,.05,0s0,.07-.06.07-.06,0-.05,0S18.08,34.32,18.13,34.32Zm-3.48-1.16s.1,0,.1.08-.05.07-.09.07a.08.08,0,0,1-.09-.08C14.57,33.17,14.61,33.16,14.65,33.16Zm-1.54.76s.07,0,.06.07,0,0-.07.06S13,34,13,34A.08.08,0,0,1,13.11,33.92Zm-1,1.21a0,0,0,0,1-.05-.05s0-.07.06-.07.05,0,.05.05A.07.07,0,0,1,12.07,35.13Zm1.3,3.12s-.07,0-.07-.06,0-.06,0-.06.06,0,.07,0S13.4,38.25,13.37,38.25Zm-.62-1.12a6.51,6.51,0,0,1,1.1-2.53A11.82,11.82,0,0,0,12.75,37.13Zm-.49,0A5.29,5.29,0,0,1,14,34.08,6.92,6.92,0,0,0,12.26,37.16Zm2.36.74h0a8.48,8.48,0,0,1,.11-1.74Zm.16,1.33s0,0,0-.06a.08.08,0,0,1,.08-.07s0,0,0,.06A.1.1,0,0,1,14.78,39.23Zm-.3-3.69a11.23,11.23,0,0,0-.28,1.28,7.72,7.72,0,0,0-.07,1.37,6.29,6.29,0,0,1,.77-3.89C14.75,34.71,14.61,35.12,14.48,35.54Zm.38-2.08a.05.05,0,0,1-.06-.06s0-.06,0-.07a.07.07,0,0,1,.07.06S14.9,33.46,14.86,33.46ZM15,35.84s-.06,0-.06-.06a.07.07,0,0,1,.06-.07.06.06,0,0,1,.06.06A.07.07,0,0,1,15,35.84Zm.13-1.23a.07.07,0,0,1-.07-.06,0,0,0,0,1,0-.06.07.07,0,0,1,.07.07S15.17,34.61,15.14,34.61Zm.24-.81a.08.08,0,0,1,.08-.07s0,0,0,.06a.1.1,0,0,1-.08.07S15.38,33.83,15.38,33.8Zm.15,1.63s-.08,0-.07-.06,0-.06.07-.06.07,0,.07.06A.07.07,0,0,1,15.53,35.43Zm.07-2.33a.07.07,0,0,1,.08-.07s.05,0,0,.06,0,.06-.07.07S15.6,33.13,15.6,33.1Zm.11,3s-.05,0-.05,0a.07.07,0,0,1,.06-.07s0,0,.06,0S15.75,36.08,15.71,36.08Zm.22,2.08a4.51,4.51,0,0,1,.05-1.1A5,5,0,0,1,15.93,38.16Zm.33,1s0,0,0,0,0-.08.07-.07.06,0,.05.05A.07.07,0,0,1,16.26,39.16Zm.21-1.09c0-.63-.07-1.27-.13-1.89A12.67,12.67,0,0,0,16,34.32a9.73,9.73,0,0,1,.5,3.74Zm0-4a0,0,0,0,1,0,0s0-.07.06-.07.05,0,.06,0A.1.1,0,0,1,16.49,34.11Zm0-.76a.07.07,0,0,1-.07-.06s0,0,0,0,.06,0,.07,0S16.55,33.35,16.51,33.35Zm.92,3.49s-.06,0-.07-.07,0,0,.05,0a.07.07,0,0,1,.07,0S17.46,36.83,17.43,36.84Zm0-1.5a9.79,9.79,0,0,1,.7,1.94A18.66,18.66,0,0,1,17.42,35.34Zm.77,2.88a.07.07,0,0,1-.07-.06s0,0,.05,0,.06,0,.07,0S18.23,38.22,18.19,38.22Zm-1.31-4.17a7.49,7.49,0,0,1,1.72,2.83A16.31,16.31,0,0,0,16.88,34.05Zm1.88,2.09a.09.09,0,0,1-.08-.06s0,0,.05,0,.07,0,.07,0S18.79,36.14,18.76,36.14Z"></path></g></g></svg>