<svg width="580" height="610" xmlns="http://www.w3.org/2000/svg" xmlns:xlink="http://www.w3.org/1999/xlink" xml:space="preserve" overflow="hidden"><defs><clipPath id="clip0"><rect x="2408" y="1064" width="580" height="610"/></clipPath></defs><g clip-path="url(#clip0)" transform="translate(-2408 -1064)"><path d="M2738.11 1148.6 2683.51 1203.21 2731.56 1251.25 2752.02 1230.8 2724.42 1203.21 2738.11 1189.51 2786.13 1237.53 2683.85 1339.82C2627.44 1396.22 2535.67 1396.22 2479.27 1339.82 2451.95 1312.49 2436.9 1276.17 2436.9 1237.53 2436.9 1198.89 2451.95 1162.57 2479.27 1135.25 2529.81 1084.71 2608.75 1079.46 2665.19 1119.5L2680.12 1104.56C2682.06 1102.62 2684.03 1100.75 2686.04 1098.91 2618.07 1047.62 2520.7 1052.9 2458.81 1114.79 2391.13 1182.47 2391.13 1292.59 2458.81 1360.27 2492.65 1394.11 2537.11 1411.04 2581.56 1411.04 2626.01 1411.04 2670.46 1394.11 2704.3 1360.27L2827.05 1237.53 2738.11 1148.6Z" fill="#EE6D2A" fill-rule="evenodd"/><path d="M2711.04 1271.59 2663.08 1224.02 2642.6 1244.33 2670.08 1271.59 2656.07 1285.48 2628.52 1258.16 2608.04 1278.47 2655.99 1326.02 2663.8 1318.28 2663.88 1318.35 2711.04 1271.59Z" fill="#404040" fill-rule="evenodd"/><path d="M2936.12 1114.88C2903.26 1082.1 2859.57 1064.05 2813.11 1064.05 2770.79 1064.05 2730.79 1079.02 2699.16 1106.45L2695.66 1109.65C2693.66 1111.49 2691.86 1113.2 2690.18 1114.87L2675.21 1129.81 2666.55 1138.44 2666.5 1138.41 2567.08 1237.59 2587.64 1258.1 2608.15 1237.65 2608.08 1237.59 2710.59 1135.33C2737.98 1108.01 2774.38 1092.97 2813.11 1092.97 2851.83 1092.97 2888.24 1108.01 2915.62 1135.33 2972.15 1191.71 2972.14 1283.46 2915.62 1339.85 2864.98 1390.36 2785.91 1395.61 2729.34 1355.63L2714.41 1370.53C2712.46 1372.47 2710.47 1374.36 2708.45 1376.21 2739.31 1399.43 2776.2 1411.05 2813.11 1411.05 2857.66 1411.05 2902.21 1394.13 2936.12 1360.3 2968.98 1327.52 2987.08 1283.94 2987.08 1237.59 2987.08 1191.23 2968.98 1147.65 2936.12 1114.88" fill="#404040" fill-rule="evenodd"/><path d="M2499.91 1539.59 2494.63 1539.59 2494.63 1555.05C2494.63 1559.8 2497.79 1563.32 2502.76 1563.32L2504.83 1563.32C2507.91 1563.32 2510.42 1560.82 2510.42 1557.75L2510.42 1550.07C2510.42 1544.28 2505.71 1539.59 2499.91 1539.59M2481.91 1516.41 2477.92 1516.41C2476.16 1516.41 2474.73 1517.84 2474.73 1519.6L2474.73 1534.74 2485.11 1534.74 2485.11 1519.6C2485.11 1517.84 2483.68 1516.41 2481.91 1516.41M2510.42 1578.48 2510.42 1572.15 2503.56 1572.15C2493.4 1572.15 2485.11 1565.14 2485.11 1556.52L2485.11 1539.59 2474.73 1539.59 2474.73 1541.42C2474.73 1551.95 2472.86 1567.51 2458.95 1579.09 2457.16 1580.58 2454.51 1580.39 2452.99 1578.62 2464.78 1564.61 2464.99 1550.38 2464.99 1540.02L2464.99 1539.59 2455.01 1539.59C2453.06 1539.59 2451.48 1541.17 2451.48 1543.12L2451.48 1588 2500.86 1588C2506.14 1588 2510.42 1583.74 2510.42 1578.48M2494.63 1522.39 2494.63 1534.74 2504.19 1534.74C2513.12 1534.74 2520.36 1541.96 2520.36 1550.87L2520.36 1593.06C2520.36 1597.77 2516.53 1601.59 2511.81 1601.59L2510.42 1601.59 2510.42 1592.86 2457.37 1592.86C2454.12 1592.86 2451.48 1595.49 2451.48 1598.73L2451.48 1602.02 2441.53 1602.02 2441.53 1542.6C2441.53 1538.26 2445.06 1534.74 2449.41 1534.74L2464.99 1534.74 2464.99 1522.57C2464.99 1519.17 2462.23 1516.41 2458.82 1516.41L2434.07 1516.41 2434.07 1511.02 2527.07 1511.02 2527.07 1516.41 2500.62 1516.41C2497.31 1516.41 2494.63 1519.09 2494.63 1522.39" fill="#404040" fill-rule="evenodd"/><path d="M2669.85 1557.55 2669.59 1557.69C2668.19 1553.66 2666.24 1548.77 2664.29 1544.74L2666.67 1543.33C2668.37 1544.98 2670.09 1546.9 2671.68 1549 2673.82 1551.82 2672.98 1555.89 2669.85 1557.55M2659.96 1559.65C2659.85 1555.51 2659.63 1550.62 2658.88 1545.83L2661.58 1545.07C2662.79 1547.39 2663.78 1549.8 2664.57 1552.08 2665.68 1555.28 2663.79 1558.73 2660.51 1559.51L2659.96 1559.65ZM2652.59 1524.07C2654.65 1518.64 2656.27 1511.67 2657.14 1506.13L2659.16 1506.69C2662.06 1507.5 2663.52 1510.75 2662.22 1513.47 2660.41 1517.26 2658.23 1521.23 2656.49 1524.07 2658.22 1523.96 2660.06 1523.85 2661.9 1523.64 2662.42 1522.47 2662.92 1521.3 2663.41 1520.14 2664.59 1517.29 2667.88 1516 2670.7 1517.24L2672.63 1518.09C2668.29 1525.71 2662.56 1533.21 2658.55 1537.67 2661.58 1537.34 2664.4 1536.8 2667.32 1536.15 2666.56 1534.41 2665.7 1532.67 2664.94 1531.26L2667.21 1529.84C2670.57 1532.89 2674.36 1538.32 2676.09 1542.02L2670.57 1544.74C2670.13 1543.11 2669.38 1541.04 2668.51 1538.98 2662.77 1542.02 2656.38 1543.87 2650.54 1545.4L2648.48 1538.32C2650.43 1538.32 2652.16 1538.22 2653.89 1538.11 2655.95 1535.39 2658.01 1531.8 2659.96 1527.88 2656.38 1529.08 2653.46 1529.62 2650.75 1529.95L2649.24 1523.96C2650.43 1524.07 2651.51 1524.07 2652.59 1524.07M2648.26 1558.56C2650.86 1554.86 2652.92 1550.4 2654.22 1545.83L2657.25 1546.59C2657.02 1549.47 2656.73 1552.08 2656.2 1554.6 2655.46 1558.17 2651.56 1560.1 2648.26 1558.56M2632.99 1553.66 2640.9 1553.66 2640.9 1550.27C2640.9 1547.46 2638.63 1545.18 2635.83 1545.18L2632.99 1545.18 2632.99 1553.66ZM2626.71 1557.69 2626.71 1541.26 2640.36 1541.26C2644.18 1541.26 2647.29 1544.38 2647.29 1548.23L2647.29 1557.69 2626.71 1557.69ZM2647.29 1537.02 2626.17 1537.02 2626.17 1532.89 2647.29 1532.89 2647.29 1537.02ZM2647.29 1528.64 2626.17 1528.64 2626.17 1524.51 2647.29 1524.51 2647.29 1528.64ZM2619.78 1557.36C2618.7 1553.12 2617.18 1548.66 2615.55 1544.53L2618.16 1543.22C2619.8 1545.06 2621.45 1547.22 2622.95 1549.49 2624.73 1552.2 2623.53 1555.87 2620.53 1557.06L2619.78 1557.36ZM2612.2 1545.29C2613.45 1547.75 2614.48 1550.27 2615.32 1552.68 2616.35 1555.61 2614.57 1558.77 2611.55 1559.42L2610.46 1559.65C2610.36 1555.08 2610.03 1550.51 2609.38 1546.05L2612.2 1545.29ZM2616.53 1583.04 2671.76 1583.04C2671 1588.48 2669.81 1593.48 2668.19 1598.82 2664.5 1611 2652.38 1610.56 2637.54 1600.55L2638.95 1596.97C2654.54 1601.64 2657.25 1601.42 2659.09 1596.31 2659.74 1594.46 2660.61 1590.87 2661.15 1587.72L2614.58 1587.72C2614.57 1587.74 2614.56 1587.76 2614.55 1587.79 2612.91 1591.65 2608.84 1593.87 2604.74 1593.03L2602.67 1592.61C2605.81 1586.41 2610.14 1575.32 2611.87 1569L2620.21 1572.92 2658.01 1572.92 2658.01 1566.94 2606.57 1566.94 2606.57 1562.26 2659.62 1562.26C2663.63 1562.26 2666.89 1565.53 2666.89 1569.56L2666.89 1577.27 2618.7 1577.27C2618.05 1579.23 2617.29 1581.19 2616.53 1583.04M2603.64 1524.62C2605.7 1519.18 2607.22 1512.22 2608.3 1506.88L2610.2 1507.43C2613.19 1508.29 2614.68 1511.68 2613.28 1514.47 2611.35 1518.32 2609.45 1521.73 2607.65 1524.51 2609.38 1524.4 2611.23 1524.29 2613.07 1524.07 2614.36 1521.35 2615.55 1518.64 2616.53 1515.92L2622.59 1518.85 2622.59 1516.13 2637.11 1516.13C2634.07 1513.19 2631.37 1511.13 2628.34 1508.95L2629.52 1506.01C2632.06 1506.65 2634.81 1507.56 2637.8 1508.96 2640.53 1510.23 2641.51 1513.63 2639.81 1516.13L2650.86 1516.13 2650.86 1520.49 2622.59 1520.49 2622.59 1520.27C2618.27 1527.23 2613.18 1533.54 2609.27 1537.67 2612.09 1537.24 2614.8 1536.69 2617.61 1536.04 2617.07 1534.73 2616.53 1533.43 2615.88 1532.13L2618.37 1530.82C2621.62 1533.87 2624 1537.24 2625.84 1540.83L2620.32 1543.33C2619.89 1541.92 2619.34 1540.5 2618.8 1539.09 2613.18 1541.92 2607.11 1544.09 2601.37 1545.4L2599.31 1538.65C2601.26 1538.54 2603 1538.43 2604.73 1538.22 2606.68 1535.61 2608.62 1532.34 2610.57 1528.86 2607 1530.06 2603.86 1530.82 2601.37 1531.15L2600.07 1524.51C2601.26 1524.51 2602.45 1524.62 2603.64 1524.62M2597.36 1558.67C2600.5 1554.86 2603.1 1550.4 2604.62 1545.62L2607.54 1546.49C2607.29 1549.7 2606.65 1552.98 2605.78 1556.05 2604.87 1559.23 2601.32 1560.79 2598.42 1559.23L2597.36 1558.67ZM2595.09 1524.51C2590.32 1518.64 2585.56 1513.74 2581.23 1509.39L2583.17 1506.34C2586.58 1507.8 2591.05 1510.03 2595.19 1512.59 2598.71 1514.76 2599.41 1519.59 2596.68 1522.7L2595.09 1524.51ZM2593.79 1560.63 2597.58 1561.83C2595.19 1576.95 2591.95 1595.01 2589.24 1604.15L2584.68 1602.26C2581.45 1600.92 2579.95 1597.21 2581.33 1593.98 2585.53 1584.12 2590.21 1571.22 2593.79 1560.63M2590.98 1552.58C2586.64 1546.16 2582.31 1540.94 2578.09 1536.15L2580.25 1533C2584 1534.91 2588.25 1537.52 2592.1 1540.44 2595.3 1542.85 2595.7 1547.53 2592.96 1550.46L2590.98 1552.58Z" fill="#404040" fill-rule="evenodd"/><path d="M2762.69 1549.65 2779.35 1549.65C2778.42 1548.5 2777.46 1547.38 2776.48 1546.29 2774.95 1544.6 2772.38 1544.27 2770.48 1545.54 2768.02 1547.18 2765.41 1548.6 2762.69 1549.65M2766.76 1514.82C2765.37 1513.54 2763.99 1512.35 2762.69 1511.31L2764.32 1508.18C2765.94 1508.96 2767.61 1509.89 2769.31 1510.91 2771.26 1512.08 2773.78 1511.41 2774.9 1509.43 2775.48 1508.38 2776.04 1507.35 2776.54 1506.34L2779.58 1508.01C2781.87 1509.28 2782.49 1512.32 2780.82 1514.32 2780.77 1514.37 2780.73 1514.42 2780.69 1514.47 2779.49 1515.89 2779.66 1518 2781.1 1519.18 2781.12 1519.2 2781.14 1519.22 2781.16 1519.23 2783.14 1520.86 2783.3 1523.82 2781.51 1525.64L2779.03 1528.16C2778.35 1527.27 2777.58 1526.26 2776.71 1525.2 2775.12 1523.25 2772.27 1522.85 2770.26 1524.36 2767.68 1526.29 2765.03 1528 2762.48 1529.35L2760.53 1526.64C2762.87 1524.76 2765.05 1522.67 2767.04 1520.43 2768.49 1518.81 2768.36 1516.3 2766.76 1514.82M2729.75 1568.88 2727.09 1568.88 2727.09 1555.66C2727.09 1552.34 2729.78 1549.65 2733.11 1549.65L2736.62 1549.65C2736.18 1537.34 2735.75 1524.92 2735.21 1512.61L2743.54 1514.44C2747.65 1512.5 2751.22 1510.01 2755.55 1506.02L2761.18 1512.07C2756.96 1514.33 2749.92 1516.82 2743.86 1517.9 2743.89 1518.3 2743.91 1518.7 2743.93 1519.1 2744.07 1521.7 2746.22 1523.73 2748.83 1523.73L2758.58 1523.73 2758.58 1528.59 2744.3 1528.59 2744.45 1532.42C2744.55 1535.05 2746.71 1537.13 2749.34 1537.13L2759.34 1537.13 2759.34 1541.98 2744.73 1541.98C2744.77 1542.97 2744.81 1543.95 2744.85 1544.91 2744.95 1547.55 2747.1 1549.65 2749.75 1549.65L2760.96 1549.65 2759.66 1546.85C2761.83 1545.64 2763.84 1544.28 2765.68 1542.78 2767.72 1541.11 2767.64 1537.98 2765.54 1536.39 2764.52 1535.62 2763.47 1534.86 2762.37 1534.1L2763.99 1531.08C2766.06 1532 2768.04 1532.88 2769.95 1533.81 2771.7 1534.66 2773.83 1534.12 2774.94 1532.52 2775.96 1531.05 2776.92 1529.52 2777.84 1527.95L2780.84 1530.06C2782.85 1531.49 2783.15 1534.37 2781.44 1536.15 2781.42 1536.17 2781.4 1536.19 2781.38 1536.21 2780.03 1537.61 2780.23 1539.87 2781.77 1541.05L2781.81 1541.08C2783.94 1542.7 2784.21 1545.8 2782.39 1547.77L2780.65 1549.65 2794.73 1549.65C2797.75 1549.65 2800.24 1547.28 2800.37 1544.27L2800.46 1542.31 2785.74 1542.31 2785.74 1537.45 2795.36 1537.45C2798.39 1537.45 2800.88 1535.06 2801 1532.04L2801.1 1529.56 2786.5 1529.56 2786.5 1524.71 2795.81 1524.7C2798.88 1524.7 2801.39 1522.25 2801.46 1519.18 2801.48 1518.26 2801.5 1517.33 2801.54 1516.39L2785.74 1516.39 2785.74 1511.52 2800.67 1511.52 2802.73 1509.47 2804.31 1509.86C2808 1510.77 2810.51 1514.16 2810.33 1517.95 2809.82 1528.45 2809.14 1539.2 2808.25 1549.65L2809.72 1549.65C2814.34 1549.65 2818.09 1553.39 2818.09 1558.01L2818.09 1561.47C2818.09 1565.38 2814.91 1568.55 2811 1568.55L2808.57 1568.55 2808.57 1560.43C2808.57 1557.16 2805.92 1554.52 2802.65 1554.52L2736.62 1554.52 2736.62 1562.03C2736.62 1565.81 2733.54 1568.88 2729.75 1568.88M2816.47 1586.53 2779.9 1586.53 2779.9 1597.29C2779.9 1606.65 2772.18 1610.48 2755.69 1603.25 2753.56 1602.31 2752.42 1599.96 2753.06 1597.72 2769.08 1600.21 2770.16 1599.45 2770.16 1593.18L2770.16 1586.53 2728.62 1586.53 2728.62 1579.47 2770.16 1579.47 2770.16 1571.69 2770.43 1571.73C2775.31 1572.46 2780.28 1571.2 2784.2 1568.21 2785.76 1567.02 2787.23 1565.8 2788.55 1564.67L2742.78 1564.67 2742.78 1559.81 2787.84 1559.81C2789.95 1559.81 2792.04 1559.36 2793.97 1558.51L2796.11 1560.23C2799.47 1562.92 2798.88 1568.14 2795.04 1570.09 2789.79 1572.75 2784.25 1574.83 2779.9 1576.12L2779.9 1579.47 2816.47 1579.47 2816.47 1586.53Z" fill="#404040" fill-rule="evenodd"/><path d="M2908.28 1540.9 2945.86 1540.9 2945.86 1545.72 2908.28 1545.72 2908.28 1540.9ZM2926.1 1523.54C2921.88 1518.08 2918.1 1513.26 2913.89 1508.97L2916.27 1505.97C2920.19 1507.65 2924.5 1510.09 2929.16 1513.57 2932.38 1515.97 2932.81 1520.6 2930.09 1523.54L2951.01 1523.54C2954.37 1523.54 2957.09 1526.24 2957.09 1529.58L2957.09 1539.83C2957.09 1543.02 2954.48 1545.62 2951.26 1545.62L2948.24 1545.62 2948.24 1531.88C2948.24 1529.94 2946.65 1528.36 2944.69 1528.36L2905.68 1528.36 2905.68 1545.62 2903.68 1545.62C2899.9 1545.62 2896.83 1542.57 2896.83 1538.82L2896.83 1530.29C2896.83 1526.56 2899.87 1523.54 2903.63 1523.54L2926.1 1523.54ZM2945.43 1604.54C2932.9 1604.54 2929.45 1603.79 2929.45 1593.19L2929.45 1566.45C2929.45 1564.59 2927.92 1563.07 2926.04 1563.07 2924.28 1563.07 2922.81 1564.41 2922.66 1566.15 2920.91 1586.61 2910.83 1601.23 2890.35 1607.97L2888.62 1604.44C2905.18 1595.83 2911.76 1582.94 2913.11 1567.55 2913.32 1565.15 2911.45 1563.07 2909.02 1563.07L2900.07 1563.07 2900.07 1558.26 2954.17 1558.26C2956.84 1558.26 2956.55 1563.07 2956.55 1563.07L2942.94 1563.07C2940.68 1563.07 2938.84 1564.9 2938.84 1567.15L2938.84 1590.83C2938.84 1595.33 2939.49 1595.76 2945.54 1595.76 2953.1 1595.76 2953.31 1593.72 2953.2 1578.4L2957.09 1578.4C2962.28 1597.36 2961.09 1604.54 2945.43 1604.54M2890.67 1567.79C2890.76 1562.13 2888.34 1554.2 2884.25 1547.5 2882.76 1545.07 2882.45 1542.12 2883.36 1539.43 2885.42 1533.32 2887.22 1525.42 2888.08 1517.86L2884.26 1517.86C2880.76 1517.86 2877.93 1520.67 2877.93 1524.14L2877.93 1606.9C2872.92 1606.9 2868.85 1602.87 2868.85 1597.9L2868.85 1521.92C2868.85 1517.19 2872.73 1513.35 2877.5 1513.36L2887.76 1513.36 2890.02 1511.54 2899.31 1515.72C2894.99 1526.67 2891.31 1534.26 2887.75 1539.76 2886.48 1541.72 2886.61 1544.29 2888.18 1546.01 2894.52 1552.96 2899.34 1561.75 2899.53 1569.72 2899.85 1584.29 2889.92 1587.72 2878.69 1578.61L2879.77 1574.97C2889.05 1577.33 2890.56 1576.36 2890.67 1567.79" fill="#404040" fill-rule="evenodd"/><path d="M2451.44 1673.02C2444.91 1673.02 2440.21 1671.5 2436.06 1667.31L2440.46 1662.99C2443.63 1666.15 2447.11 1667.12 2451.56 1667.12 2457.24 1667.12 2460.53 1664.69 2460.53 1660.5 2460.53 1658.61 2459.98 1657.03 2458.82 1656 2457.73 1654.97 2456.63 1654.54 2454.06 1654.18L2448.94 1653.45C2445.4 1652.96 2442.59 1651.75 2440.7 1649.98 2438.56 1647.98 2437.52 1645.24 2437.52 1641.72 2437.52 1634.19 2443.02 1629.02 2452.05 1629.02 2457.79 1629.02 2461.81 1630.48 2465.54 1633.94L2461.32 1638.07C2458.64 1635.52 2455.53 1634.73 2451.87 1634.73 2446.74 1634.73 2443.93 1637.65 2443.93 1641.48 2443.93 1643.06 2444.42 1644.45 2445.58 1645.49 2446.68 1646.46 2448.45 1647.19 2450.46 1647.49L2455.41 1648.22C2459.43 1648.83 2461.69 1649.8 2463.52 1651.44 2465.9 1653.51 2467.06 1656.61 2467.06 1660.32 2467.06 1668.28 2460.53 1673.02 2451.44 1673.02" fill="#404040" fill-rule="evenodd"/><path d="M2476.9 1629 2483.9 1629 2483.9 1672 2476.9 1672Z" fill="#404040" fill-rule="evenodd"/><path d="M2563.9 1672.02 2558.25 1672.02 2549.54 1641.88 2540.89 1672.02 2535.25 1672.02 2524.07 1629.02 2530.92 1629.02 2538.37 1659.76 2546.96 1629.02 2552.19 1629.02 2560.78 1659.76 2568.23 1629.02 2575.07 1629.02 2563.9 1672.02Z" fill="#404040" fill-rule="evenodd"/><path d="M2595.73 1638.75 2588.98 1657.84 2602.29 1657.84 2595.73 1638.75ZM2607.09 1672.03 2604.11 1663.39 2587.04 1663.39 2584.06 1672.03 2577.08 1672.03 2592.93 1629.03 2598.22 1629.03 2614.08 1672.03 2607.09 1672.03Z" fill="#404040" fill-rule="evenodd"/><path d="M2648.99 1672.02 2628.73 1641.76 2628.73 1672.02 2622.08 1672.02 2622.08 1629.02 2628.18 1629.02 2648.43 1659.22 2648.43 1629.02 2655.08 1629.02 2655.08 1672.02 2648.99 1672.02Z" fill="#404040" fill-rule="evenodd"/><path d="M2713.65 1673.02C2709.15 1673.02 2705.26 1671.38 2702.28 1668.4 2698.03 1664.15 2698.09 1659.35 2698.09 1651.02 2698.09 1642.69 2698.03 1637.89 2702.28 1633.64 2705.26 1630.66 2709.15 1629.02 2713.65 1629.02 2721.61 1629.02 2727.57 1633.7 2729.09 1642.33L2722.4 1642.33C2721.37 1637.95 2718.45 1634.91 2713.65 1634.91 2711.09 1634.91 2708.79 1635.89 2707.26 1637.53 2705.14 1639.84 2704.65 1642.33 2704.65 1651.02 2704.65 1659.71 2705.14 1662.2 2707.26 1664.51 2708.79 1666.15 2711.09 1667.12 2713.65 1667.12 2718.45 1667.12 2721.43 1664.09 2722.46 1659.71L2729.09 1659.71C2727.63 1668.34 2721.49 1673.02 2713.65 1673.02" fill="#404040" fill-rule="evenodd"/><path d="M2760.01 1637.6C2758.5 1635.96 2756.13 1634.92 2753.59 1634.92 2751.05 1634.92 2748.69 1635.96 2747.17 1637.6 2745.06 1639.9 2744.63 1642.34 2744.63 1651.03 2744.63 1659.72 2745.06 1662.15 2747.17 1664.46 2748.69 1666.1 2751.05 1667.13 2753.59 1667.13 2756.13 1667.13 2758.5 1666.1 2760.01 1664.46 2762.13 1662.15 2762.55 1659.72 2762.55 1651.03 2762.55 1642.34 2762.13 1639.9 2760.01 1637.6M2764.97 1668.41C2762.01 1671.39 2758.19 1673.03 2753.59 1673.03 2748.99 1673.03 2745.24 1671.39 2742.27 1668.41 2738.03 1664.16 2738.09 1659.35 2738.09 1651.03 2738.09 1642.7 2738.03 1637.9 2742.27 1633.65 2745.24 1630.67 2748.99 1629.03 2753.59 1629.03 2758.19 1629.03 2762.01 1630.67 2764.97 1633.65 2769.21 1637.9 2769.09 1642.7 2769.09 1651.03 2769.09 1659.35 2769.21 1664.16 2764.97 1668.41" fill="#404040" fill-rule="evenodd"/><path d="M2780.09 1672.02 2780.09 1629.02 2786.8 1629.02 2786.8 1666.16 2808.09 1666.16 2808.09 1672.02 2780.09 1672.02Z" fill="#404040" fill-rule="evenodd"/><path d="M2817.1 1672.02 2817.1 1629.02 2823.56 1629.02 2823.56 1666.16 2844.09 1666.16 2844.09 1672.02 2817.1 1672.02Z" fill="#404040" fill-rule="evenodd"/><path d="M2853.1 1672.02 2853.1 1629.02 2881.1 1629.02 2881.1 1634.88 2859.75 1634.88 2859.75 1647.44 2877.96 1647.44 2877.96 1653.24 2859.75 1653.24 2859.75 1666.16 2881.1 1666.16 2881.1 1672.02 2853.1 1672.02Z" fill="#404040" fill-rule="evenodd"/><path d="M2917.26 1668.1C2914.02 1671.56 2909.99 1673.02 2905.49 1673.02 2901.04 1673.02 2897.2 1671.38 2894.25 1668.4 2890.05 1664.15 2890.11 1659.35 2890.11 1651.02 2890.11 1642.69 2890.05 1637.89 2894.25 1633.64 2897.2 1630.66 2900.92 1629.02 2905.49 1629.02 2914.56 1629.02 2919.85 1635.04 2921.05 1642.45L2914.5 1642.45C2913.42 1637.71 2910.3 1634.91 2905.49 1634.91 2902.96 1634.91 2900.68 1635.95 2899.18 1637.59 2897.08 1639.9 2896.6 1642.33 2896.6 1651.02 2896.6 1659.71 2897.08 1662.2 2899.18 1664.51 2900.68 1666.15 2902.96 1667.13 2905.49 1667.13 2908.31 1667.13 2910.77 1666.03 2912.46 1664.09 2914.02 1662.26 2914.62 1660.08 2914.62 1657.28L2914.62 1654.85 2905.49 1654.85 2905.49 1649.26 2921.11 1649.26 2921.11 1655.88C2921.11 1661.48 2920.09 1665.06 2917.26 1668.1" fill="#404040" fill-rule="evenodd"/><path d="M2933.11 1672.02 2933.11 1629.02 2960.11 1629.02 2960.11 1634.88 2939.51 1634.88 2939.51 1647.44 2957.08 1647.44 2957.08 1653.24 2939.51 1653.24 2939.51 1666.16 2960.11 1666.16 2960.11 1672.02 2933.11 1672.02Z" fill="#404040" fill-rule="evenodd"/></g></svg>